<svg version="1.1" baseProfile="tiny" xmlns="http://www.w3.org/2000/svg" x="0px" y="0px" viewBox="0 0 1280 720" xml:space="preserve">
<polygon fill="#FF00FF" stroke="#000000" stroke-miterlimit="2.6131" points="1013.8,424.3 1013.8,238 957.1,238 957.1,238
	794.7,238 794.7,294.7 957.1,294.7 957.1,318.9 794.7,318.9 794.7,375.6 957.1,375.6 957.1,424.3 794.7,424.3 794.7,481 957.1,481
	1013.8,481 1037.8,481 1037.8,424.3 "/>
<path fill="#FF00FF" stroke="#000000" stroke-miterlimit="2.6131" d="M705.7,263.3H576V239h-56.7v119.2l0,0V401h93.2v24.3h-93.2V482
	h243.1v-56.7h-93.2V401h93.2V239h-56.7V263.3L705.7,263.3z M705.7,344.3H576V320h129.7V344.3z"/>
<path fill="#FF00FF" d="M356.6,279L356.6,279L356.6,279z"/>
<path fill="#FF00FF" stroke="#000000" stroke-miterlimit="2.6131" d="M356.6,279c-9.2-3.3-19-5-28.8-5c-47.2,0-85.5,38.3-85.5,85.5
	s38.3,85.5,85.5,85.5s85.5-38.3,85.5-85.5c0-0.1,0-0.3,0-0.4C413.3,323.1,390.5,291,356.6,279z M327.8,387.4
	c-15.7,0-28.4-12.7-28.4-28.4c0-15.7,12.7-28.4,28.4-28.4c15.6,0,28.4,12.7,28.4,28.4C356.1,374.7,343.4,387.4,327.8,387.4z"/>
<rect x="430.1" y="238" fill="#FF00FF" stroke="#000000" stroke-miterlimit="2.6131" width="56.7" height="243"/>
</svg>
